<svg xmlns="http://www.w3.org/2000/svg">
	<defs>
        <svg id="facebook" viewBox="0 0 256 256">
            <path fill="currentColor" d="M256 128C256 57.308 198.692 0 128 0S0 57.308 0 128c0 63.888 46.808 116.843 108 126.445V165H75.5v-37H108V99.8c0-32.08 19.11-49.8 48.348-49.8C170.352 50 185 52.5 185 52.5V84h-16.14C152.959 84 148 93.867 148 103.99V128h35.5l-5.675 37H148v89.445c61.192-9.602 108-62.556 108-126.445" />
            <path fill="#fff" d="m177.825 165l5.675-37H148v-24.01C148 93.866 152.959 84 168.86 84H185V52.5S170.352 50 156.347 50C127.11 50 108 67.72 108 99.8V128H75.5v37H108v89.445A129 129 0 0 0 128 256a129 129 0 0 0 20-1.555V165z" />
        </svg>
        <svg id="telegram" viewBox="0 0 256 256">
            <path fill="#229ED9" d="M128 0C94.06 0 61.48 13.494 37.5 37.49A128.04 128.04 0 0 0 0 128c0 33.934 13.5 66.514 37.5 90.51C61.48 242.506 94.06 256 128 256s66.52-13.494 90.5-37.49c24-23.996 37.5-56.576 37.5-90.51s-13.5-66.514-37.5-90.51C194.52 13.494 161.94 0 128 0" />
            <path fill="#fff" d="M57.94 126.648q55.98-24.384 74.64-32.152c35.56-14.786 42.94-17.354 47.76-17.441c1.06-.017 3.42.245 4.96 1.49c1.28 1.05 1.64 2.47 1.82 3.467c.16.996.38 3.266.2 5.038c-1.92 20.24-10.26 69.356-14.5 92.026c-1.78 9.592-5.32 12.808-8.74 13.122c-7.44.684-13.08-4.912-20.28-9.63c-11.26-7.386-17.62-11.982-28.56-19.188c-12.64-8.328-4.44-12.906 2.76-20.386c1.88-1.958 34.64-31.748 35.26-34.45c.08-.338.16-1.598-.6-2.262c-.74-.666-1.84-.438-2.64-.258c-1.14.256-19.12 12.152-54 35.686c-5.1 3.508-9.72 5.218-13.88 5.128c-4.56-.098-13.36-2.584-19.9-4.708c-8-2.606-14.38-3.984-13.82-8.41c.28-2.304 3.46-4.662 9.52-7.072" />
        </svg>
        <svg id="youtube-icon" width="256" height="180" viewBox="0 0 256 180">
            <path fill="currentColor" d="M250.346 28.075A32.18 32.18 0 0 0 227.69 5.418C207.824 0 127.87 0 127.87 0S47.912.164 28.046 5.582A32.18 32.18 0 0 0 5.39 28.24c-6.009 35.298-8.34 89.084.165 122.97a32.18 32.18 0 0 0 22.656 22.657c19.866 5.418 99.822 5.418 99.822 5.418s79.955 0 99.82-5.418a32.18 32.18 0 0 0 22.657-22.657c6.338-35.348 8.291-89.1-.164-123.134" />
            <path fill="#fff" d="m102.421 128.06l66.328-38.418l-66.328-38.418z" />
        </svg>
	</defs>
</svg>
